<svg width="14" height="14" viewBox="0 0 14 14" fill="none" xmlns="http://www.w3.org/2000/svg">
<path fill-rule="evenodd" clip-rule="evenodd" d="M7 6C10.866 6 14 4.65685 14 3C14 1.34315 10.866 0 7 0C3.13401 0 0 1.34315 0 3C0 4.65685 3.13401 6 7 6ZM14 6.07928C12.9165 7.20287 10.191 8 7 8C3.80901 8 1.08346 7.20287 0 6.07928V7C0 8.65685 3.13401 10 7 10C10.866 10 14 8.65685 14 7V6.07928ZM14 10.0793C12.9165 11.2029 10.191 12 7 12C3.80901 12 1.08346 11.2029 0 10.0793V11C0 12.6569 3.13401 14 7 14C10.866 14 14 12.6569 14 11V10.0793Z" fill="#0a8c37"/>
</svg>
