<svg width="7" height="7" viewBox="0 0 7 7" fill="none" xmlns="http://www.w3.org/2000/svg">
<path fill-rule="evenodd" clip-rule="evenodd" d="M4.75 3.35L6.55 1.55C6.75 1.35 6.75 1.05 6.55 0.85L5.85 0.15C5.65 -0.05 5.35 -0.05 5.15 0.15L3.35 1.95L1.55 0.15C1.35 -0.05 1.05 -0.05 0.85 0.15L0.15 0.85C-0.05 1.05 -0.05 1.35 0.15 1.55L1.95 3.35L0.15 5.15C-0.05 5.35 -0.05 5.65 0.15 5.85L0.85 6.55C1.05 6.75 1.35 6.75 1.55 6.55L3.35 4.75L5.15 6.55C5.35 6.75 5.65 6.75 5.85 6.55L6.55 5.85C6.75 5.65 6.75 5.35 6.55 5.15L4.75 3.35Z" fill="#C80000"/>
</svg>
