<svg width="18" height="20" viewBox="0 0 18 20" fill="none" xmlns="http://www.w3.org/2000/svg">
<path fill-rule="evenodd" clip-rule="evenodd" d="M2 3.5C2 2.67157 2.67157 2 3.5 2H12.1707C12.0602 2.31278 12 2.64936 12 3V3.14286V6V7V15.3981C12 15.8958 11.6341 16.3177 11.1414 16.3881L3.14142 17.5309C2.53899 17.617 2 17.1495 2 16.541V3.5ZM14 7V15.3981C14 16.8911 12.9022 18.1568 11.4243 18.368L3.42426 19.5108C1.61696 19.769 0 18.3666 0 16.541V3.5C0 1.567 1.567 0 3.5 0H13H15C16.7207 0 18 1.47321 18 3.14286V5C18 6.10457 17.1046 7 16 7H14ZM14 5L16 5V3.14286C16 2.44557 15.4884 2 15 2C14.5116 2 14 2.44557 14 3.14286V5ZM5 4C4.44772 4 4 4.44772 4 5C4 5.55228 4.44772 6 5 6H9C9.55228 6 10 5.55228 10 5C10 4.44772 9.55228 4 9 4H5ZM4 9C4 8.44771 4.44772 8 5 8H9C9.55228 8 10 8.44771 10 9C10 9.55229 9.55228 10 9 10H5C4.44772 10 4 9.55229 4 9Z" fill="#0a8c37"/>
</svg>
